<?xml version="1.0" encoding="UTF-8"?>
<svg viewBox="0 0 599 1024" version="1.1" xmlns="http://www.w3.org/2000/svg" xmlns:xlink="http://www.w3.org/1999/xlink">
    <!-- Generator: Sketch 51.2 (57519) - http://www.bohemiancoding.com/sketch -->
    <title>Background</title>
    <desc>Created with Sketch.</desc>
    <defs></defs>
    <g id="Page-1" stroke="none" stroke-width="1" fill="none" fill-rule="evenodd">
        <g id="Home-Screen">
            <g id="Background">
                <path d="M599,602.723757 L599,624.184864 C595.066994,622.27194 590.65744,621.2 586,621.2 C569.431458,621.2 556,634.765772 556,651.5 C556,668.234228 569.431458,681.8 586,681.8 C590.65744,681.8 595.066994,680.72806 599.000002,678.815126 L599,700.276243 C594.854696,701.400473 590.496669,702 586,702 C558.385763,702 536,679.39038 536,651.5 C536,623.60962 558.385763,601 586,601 C590.496669,601 594.854696,601.599527 599,602.723757 Z" id="Combined-Shape" fill="#FADB5F"></path>
                <path d="M87.5435341,1024 C86.5356818,1020.00246 86,1015.81442 86,1011.5 C86,983.60962 108.385763,961 136,961 C163.614237,961 186,983.60962 186,1011.5 C186,1015.81442 185.464318,1020.00246 184.456466,1024 L163.336256,1024 C165.047256,1020.18904 166,1015.95689 166,1011.5 C166,994.765772 152.568542,981.2 136,981.2 C119.431458,981.2 106,994.765772 106,1011.5 C106,1015.95689 106.952744,1020.18904 108.66375,1024 L87.5435341,1024 Z" id="Combined-Shape" fill="#4B53FE"></path>
                <path d="M599,197 L599,217.2 C582.431458,217.2 569,230.765772 569,247.5 C569,264.234228 582.431458,277.8 599,277.8 L599,298 C571.385763,298 549,275.39038 549,247.5 C549,219.60962 571.385763,197 599,197 Z" id="Combined-Shape" fill="#1BBDBD"></path>
                <path d="M0,318.82233 L31.232233,350.054564 L63.759145,317.527652 L81.4368145,335.205321 L48.9099026,367.732233 L85.0030922,403.825423 L67.3254227,421.503092 L31.232233,385.409903 L3.10862447e-15,416.642136 L0,381.286797 L13.5545635,367.732233 L0,354.17767 L0,318.82233 Z" id="Combined-Shape" fill="#26BFBF"></path>
                <path d="M599,945.846805 L599,981.202144 L589.439907,990.762237 L599,1000.32233 L599,1024 L587.32233,1024 L571.762237,1008.43991 L556.202144,1024 L522.268507,1024 L521.557656,1023.28915 L554.084568,990.762237 L521.526912,958.204581 L539.204581,940.526912 L571.762237,973.084568 L599,945.846805 Z" id="Combined-Shape" fill="#FFA3A3"></path>
                <path d="M170.530004,129.030004 L221.573482,129.030004 L221.573482,154.030004 L170.530004,154.030004 L170.530004,200.030004 L145.530004,200.030004 L145.530004,154.030004 L99.4865259,154.030004 L99.4865259,129.030004 L145.530004,129.030004 L145.530004,83.0300041 L170.530004,83.0300041 L170.530004,129.030004 Z" id="Combined-Shape-Copy-9" fill="#F9CE18" transform="translate(160.530004, 141.530004) rotate(45.000000) translate(-160.530004, -141.530004) "></path>
                <path d="M599,27.3223305 L599,62.6776695 L565.762237,29.4399067 L533.235325,61.9668186 L515.557656,44.2891491 L548.084568,11.7622372 L536.32233,-3.55271368e-15 L595.202144,0 L583.439907,11.7622372 L599,27.3223305 Z" id="Combined-Shape" fill="#4B53FE"></path>
            </g>
        </g>
    </g>
</svg>