<?xml version="1.0" encoding="UTF-8"?>
<svg width="599px" height="1024px" viewBox="0 0 599 1024" version="1.1" xmlns="http://www.w3.org/2000/svg" xmlns:xlink="http://www.w3.org/1999/xlink">
    <!-- Generator: Sketch 51.2 (57519) - http://www.bohemiancoding.com/sketch -->
    <title>Background</title>
    <desc>Created with Sketch.</desc>
    <defs></defs>
    <g id="Page-1" stroke="none" stroke-width="1" fill="none" fill-rule="evenodd">
        <g id="Home-Screen">
            <g id="Background">
                <path d="M598.999998,602.723757 L598.999998,624.184864 C595.066992,622.27194 590.657438,621.2 585.999999,621.2 C569.431457,621.2 555.999999,634.765772 555.999999,651.5 C555.999999,668.234228 569.431457,681.8 585.999999,681.8 C590.657438,681.8 595.066992,680.72806 599,678.815126 L598.999998,700.276243 C594.854695,701.400473 590.496667,702 585.999999,702 C558.385762,702 536,679.39038 536,651.5 C536,623.60962 558.385762,601 585.999999,601 C590.496667,601 594.854695,601.599527 598.999998,602.723757 Z" id="Combined-Shape" fill="#FADB5F"></path>
                <path d="M87.5435341,1024 C86.5356818,1020.00246 86,1015.81441 86,1011.5 C86,983.60962 108.385763,961 136,961 C163.614237,961 186,983.60962 186,1011.5 C186,1015.81441 185.464318,1020.00246 184.456466,1024 L163.336256,1024 C165.047256,1020.18903 166,1015.95689 166,1011.5 C166,994.765771 152.568542,981.2 136,981.2 C119.431458,981.2 106,994.765771 106,1011.5 C106,1015.95689 106.952744,1020.18903 108.66375,1024 L87.5435341,1024 Z" id="Combined-Shape" fill="#4B53FE"></path>
                <path d="M599,197 L599,217.2 C582.431458,217.2 569,230.765772 569,247.5 C569,264.234228 582.431458,277.8 599,277.8 L599,298 C571.385763,298 549,275.39038 549,247.5 C549,219.60962 571.385763,197 599,197 Z" id="Combined-Shape" fill="#1BBDBD"></path>
                <path d="M-3.55271368e-15,319.308798 L31.230856,350.539654 L63.7681011,318.002409 L81.4451276,335.679436 L48.9078824,368.216681 L85.0117658,404.320564 L67.3347393,421.997591 L31.230856,385.893707 L-2.22044605e-16,417.124563 L0,381.77051 L13.5538295,368.216681 L0,354.662851 L0,319.308798 Z" id="Combined-Shape" fill="#FFA09E"></path>
                <path d="M599,946.309457 L599,981.448899 L589.497897,990.951002 L599,1000.4531 L599,1024 L587.407453,1024 L571.928176,1008.52072 L556.448899,1024 L522.715342,1024 L522.012399,1023.29706 L554.358455,990.951002 L521.981054,958.573601 L539.550775,941.00388 L571.928176,973.381281 L599,946.309457 Z" id="Combined-Shape" fill="#26BFBF"></path>
                <path d="M169.992877,129.008903 L221.043478,129.008903 L221.043478,153.991097 L169.992877,153.991097 L169.992877,200 L145.010684,200 L145.010684,153.991097 L98.9565217,153.991097 L98.9565217,129.008903 L145.010684,129.008903 L145.010684,83 L169.992877,83 L169.992877,129.008903 Z" id="Combined-Shape-Copy-9" fill="#F9CE18" transform="translate(160.000000, 141.500000) rotate(45.000000) translate(-160.000000, -141.500000) "></path>
                <path d="M599,27.318795 L599,62.4867084 L565.929206,29.4159143 L533.151938,62.1931818 L515.567982,44.6092251 L548.345249,11.8319576 L536.513292,0 L595.34512,0 L583.513163,11.8319576 L599,27.318795 Z" id="Combined-Shape" fill="#4B53FE"></path>
            </g>
        </g>
    </g>
</svg>