<?xml version="1.0" encoding="UTF-8"?>
<svg width="599px" height="1024px" viewBox="0 0 599 1024" version="1.1" xmlns="http://www.w3.org/2000/svg" xmlns:xlink="http://www.w3.org/1999/xlink">
    <!-- Generator: Sketch 51.2 (57519) - http://www.bohemiancoding.com/sketch -->
    <title>Background</title>
    <desc>Created with Sketch.</desc>
    <defs></defs>
    <g id="Page-1" stroke="none" stroke-width="1" fill="none" fill-rule="evenodd">
        <g id="Home-Screen">
            <g id="Background">
                <g id="TicTacToe" transform="translate(410.000000, 370.000000)">
                    <g id="Cross" transform="translate(122.374092, 46.480567) rotate(45.000000) translate(-122.374092, -46.480567) translate(109.374092, 34.480567)" fill="#E07C7C">
                        <rect id="Rectangle-2" x="10" y="0" width="5" height="23.3129252"></rect>
                        <rect id="Rectangle-2-Copy" transform="translate(13.000000, 11.656463) rotate(90.000000) translate(-13.000000, -11.656463) " x="10.5" y="-0.506802721" width="5" height="24.3265306"></rect>
                    </g>
                    <g id="Cross-Copy" transform="translate(155.374092, 75.875124) rotate(45.000000) translate(-155.374092, -75.875124) translate(142.374092, 63.875124)" fill="#E07C7C">
                        <rect id="Rectangle-2" x="10" y="0" width="5" height="23.3129252"></rect>
                        <rect id="Rectangle-2-Copy" transform="translate(13.000000, 11.656463) rotate(90.000000) translate(-13.000000, -11.656463) " x="10.5" y="-0.506802721" width="5" height="24.3265306"></rect>
                    </g>
                    <g id="Cross-Copy-2" transform="translate(122.374092, 75.875124) rotate(45.000000) translate(-122.374092, -75.875124) translate(109.374092, 63.875124)" fill="#E07C7C">
                        <rect id="Rectangle-2" x="10" y="0" width="5" height="23.3129252"></rect>
                        <rect id="Rectangle-2-Copy" transform="translate(13.000000, 11.656463) rotate(90.000000) translate(-13.000000, -11.656463) " x="10.5" y="-0.506802721" width="5" height="24.3265306"></rect>
                    </g>
                    <g id="Cross-Copy-3" transform="translate(51.757082, 106.283288) rotate(45.000000) translate(-51.757082, -106.283288) translate(38.757082, 94.283288)" fill="#E07C7C">
                        <rect id="Rectangle-2" x="10" y="0" width="5" height="23.3129252"></rect>
                        <rect id="Rectangle-2-Copy" transform="translate(13.000000, 11.656463) rotate(90.000000) translate(-13.000000, -11.656463) " x="10.5" y="-0.506802721" width="5" height="24.3265306"></rect>
                    </g>
                    <g id="Group-5" fill="#D8D8D8">
                        <rect id="Rectangle-3" x="1" y="5.68434189e-14" width="174" height="3.04081633"></rect>
                        <rect id="Rectangle-3-Copy-5" transform="translate(173.500000, 75.513605) rotate(90.000000) translate(-173.500000, -75.513605) " x="101" y="73.9931973" width="145" height="3.04081633"></rect>
                        <rect id="Rectangle-3-Copy-7" transform="translate(138.734019, 75.513605) rotate(90.000000) translate(-138.734019, -75.513605) " x="66.2340187" y="73.9931973" width="145" height="3.04081633"></rect>
                        <rect id="Rectangle-3-Copy-8" transform="translate(104.734019, 75.513605) rotate(90.000000) translate(-104.734019, -75.513605) " x="32.2340187" y="73.9931973" width="145" height="3.04081633"></rect>
                        <rect id="Rectangle-3-Copy-9" transform="translate(70.734019, 75.513605) rotate(90.000000) translate(-70.734019, -75.513605) " x="-1.76598128" y="73.9931973" width="145" height="3.04081633"></rect>
                        <rect id="Rectangle-3-Copy-10" transform="translate(36.500000, 75.513605) rotate(90.000000) translate(-36.500000, -75.513605) " x="-36" y="73.9931973" width="145" height="3.04081633"></rect>
                        <rect id="Rectangle-3-Copy-11" transform="translate(2.500000, 75.513605) rotate(90.000000) translate(-2.500000, -75.513605) " x="-70" y="73.9931973" width="145" height="3.04081633"></rect>
                        <rect id="Rectangle-3-Copy" x="3" y="29.3945578" width="172" height="3.04081633"></rect>
                        <rect id="Rectangle-3-Copy-2" x="2" y="58.7891156" width="173" height="3.04081633"></rect>
                        <rect id="Rectangle-3-Copy-3" x="2" y="88.1836735" width="173" height="3.04081633"></rect>
                        <rect id="Rectangle-3-Copy-4" x="2" y="117.578231" width="173" height="3.04081633"></rect>
                        <rect id="Rectangle-3-Copy-6" x="2" y="145.959184" width="173" height="3.04081633"></rect>
                    </g>
                    <path d="M157,26.3537415 C151.477153,26.3537415 147,21.8156754 147,16.2176871 C147,10.6196988 151.477153,6.08163265 157,6.08163265 C162.522847,6.08163265 167,10.6196988 167,16.2176871 C167,21.8156754 162.522847,26.3537415 157,26.3537415 Z M157,22.2993197 C160.313708,22.2993197 163,19.57648 163,16.2176871 C163,12.8588941 160.313708,10.1360544 157,10.1360544 C153.686292,10.1360544 151,12.8588941 151,16.2176871 C151,19.57648 153.686292,22.2993197 157,22.2993197 Z" id="Combined-Shape" fill="#E07C7C"></path>
                    <path d="M88,116.564626 C82.4771525,116.564626 78,112.02656 78,106.428571 C78,100.830583 82.4771525,96.292517 88,96.292517 C93.5228475,96.292517 98,100.830583 98,106.428571 C98,112.02656 93.5228475,116.564626 88,116.564626 Z M88,112.510204 C91.3137085,112.510204 94,109.787364 94,106.428571 C94,103.069778 91.3137085,100.346939 88,100.346939 C84.6862915,100.346939 82,103.069778 82,106.428571 C82,109.787364 84.6862915,112.510204 88,112.510204 Z" id="Combined-Shape-Copy" fill="#E07C7C"></path>
                    <path d="M52,56.7619048 C46.4771525,56.7619048 42,52.2238386 42,46.6258503 C42,41.0278621 46.4771525,36.4897959 52,36.4897959 C57.5228475,36.4897959 62,41.0278621 62,46.6258503 C62,52.2238386 57.5228475,56.7619048 52,56.7619048 Z M52,52.707483 C55.3137085,52.707483 58,49.9846433 58,46.6258503 C58,43.2670574 55.3137085,40.5442177 52,40.5442177 C48.6862915,40.5442177 46,43.2670574 46,46.6258503 C46,49.9846433 48.6862915,52.707483 52,52.707483 Z" id="Combined-Shape-Copy-3" fill="#E07C7C"></path>
                    <path d="M52,85.1428571 C46.4771525,85.1428571 42,80.604791 42,75.0068027 C42,69.4088144 46.4771525,64.8707483 52,64.8707483 C57.5228475,64.8707483 62,69.4088144 62,75.0068027 C62,80.604791 57.5228475,85.1428571 52,85.1428571 Z M52,81.0884354 C55.3137085,81.0884354 58,78.3655957 58,75.0068027 C58,71.6480098 55.3137085,68.9251701 52,68.9251701 C48.6862915,68.9251701 46,71.6480098 46,75.0068027 C46,78.3655957 48.6862915,81.0884354 52,81.0884354 Z" id="Combined-Shape-Copy-2" fill="#E07C7C"></path>
                </g>
                <g id="TicTacToe" transform="translate(5.000000, 717.000000)">
                    <rect id="Rectangle-3" fill="#D8D8D8" x="1" y="5.68434189e-14" width="174" height="3.04081633"></rect>
                    <rect id="Rectangle-3-Copy-5" fill="#D8D8D8" transform="translate(173.500000, 75.513605) rotate(90.000000) translate(-173.500000, -75.513605) " x="101" y="73.9931973" width="145" height="3.04081633"></rect>
                    <rect id="Rectangle-3-Copy-7" fill="#D8D8D8" transform="translate(138.734019, 75.513605) rotate(90.000000) translate(-138.734019, -75.513605) " x="66.2340187" y="73.9931973" width="145" height="3.04081633"></rect>
                    <rect id="Rectangle-3-Copy-8" fill="#D8D8D8" transform="translate(104.734019, 75.513605) rotate(90.000000) translate(-104.734019, -75.513605) " x="32.2340187" y="73.9931973" width="145" height="3.04081633"></rect>
                    <rect id="Rectangle-3-Copy-9" fill="#D8D8D8" transform="translate(70.734019, 75.513605) rotate(90.000000) translate(-70.734019, -75.513605) " x="-1.76598128" y="73.9931973" width="145" height="3.04081633"></rect>
                    <rect id="Rectangle-3-Copy-10" fill="#D8D8D8" transform="translate(36.500000, 75.513605) rotate(90.000000) translate(-36.500000, -75.513605) " x="-36" y="73.9931973" width="145" height="3.04081633"></rect>
                    <rect id="Rectangle-3-Copy-11" fill="#D8D8D8" transform="translate(2.500000, 75.513605) rotate(90.000000) translate(-2.500000, -75.513605) " x="-70" y="73.9931973" width="145" height="3.04081633"></rect>
                    <rect id="Rectangle-3-Copy" fill="#D8D8D8" x="3" y="29.3945578" width="172" height="3.04081633"></rect>
                    <rect id="Rectangle-3-Copy-2" fill="#D8D8D8" x="2" y="58.7891156" width="173" height="3.04081633"></rect>
                    <rect id="Rectangle-3-Copy-3" fill="#D8D8D8" x="2" y="88.1836735" width="173" height="3.04081633"></rect>
                    <rect id="Rectangle-3-Copy-4" fill="#D8D8D8" x="2" y="117.578231" width="173" height="3.04081633"></rect>
                    <rect id="Rectangle-3-Copy-6" fill="#D8D8D8" x="2" y="145.959184" width="173" height="3.04081633"></rect>
                    <path d="M58,129 L68,129 L68,134 L58,134 L58,143 L53,143 L53,134 L44,134 L44,129 L53,129 L53,120 L58,120 L58,129 Z" id="Combined-Shape" fill="#1BBDBD" transform="translate(56.000000, 131.500000) rotate(45.000000) translate(-56.000000, -131.500000) "></path>
                    <path d="M90,73 L100,73 L100,78 L90,78 L90,87 L85,87 L85,78 L76,78 L76,73 L85,73 L85,64 L90,64 L90,73 Z" id="Combined-Shape" fill="#1BBDBD" transform="translate(88.000000, 75.500000) rotate(45.000000) translate(-88.000000, -75.500000) "></path>
                    <path d="M55,42 L65,42 L65,47 L55,47 L55,56 L50,56 L50,47 L41,47 L41,42 L50,42 L50,33 L55,33 L55,42 Z" id="Combined-Shape-Copy-10" fill="#1BBDBD" transform="translate(53.000000, 44.500000) rotate(45.000000) translate(-53.000000, -44.500000) "></path>
                    <path d="M124,103 L134,103 L134,108 L124,108 L124,117 L119,117 L119,108 L110,108 L110,103 L119,103 L119,94 L124,94 L124,103 Z" id="Combined-Shape" fill="#1BBDBD" transform="translate(122.000000, 105.500000) rotate(45.000000) translate(-122.000000, -105.500000) "></path>
                    <path d="M90,103 L100,103 L100,108 L90,108 L90,117 L85,117 L85,108 L76,108 L76,103 L85,103 L85,94 L90,94 L90,103 Z" id="Combined-Shape" fill="#1BBDBD" transform="translate(88.000000, 105.500000) rotate(45.000000) translate(-88.000000, -105.500000) "></path>
                    <path d="M53,115 C47.4771525,115 43,110.522847 43,105 C43,99.4771525 47.4771525,95 53,95 C58.5228475,95 63,99.4771525 63,105 C63,110.522847 58.5228475,115 53,115 Z M53,111 C56.3137085,111 59,108.313708 59,105 C59,101.686292 56.3137085,99 53,99 C49.6862915,99 47,101.686292 47,105 C47,108.313708 49.6862915,111 53,111 Z" id="Combined-Shape" fill="#2DC1C1"></path>
                    <path d="M121,26 C115.477153,26 111,21.5228475 111,16 C111,10.4771525 115.477153,6 121,6 C126.522847,6 131,10.4771525 131,16 C131,21.5228475 126.522847,26 121,26 Z M121,22 C124.313708,22 127,19.3137085 127,16 C127,12.6862915 124.313708,10 121,10 C117.686292,10 115,12.6862915 115,16 C115,19.3137085 117.686292,22 121,22 Z" id="Combined-Shape-Copy" fill="#2DC1C1"></path>
                    <path d="M121,85 C115.477153,85 111,80.5228475 111,75 C111,69.4771525 115.477153,65 121,65 C126.522847,65 131,69.4771525 131,75 C131,80.5228475 126.522847,85 121,85 Z M121,81 C124.313708,81 127,78.3137085 127,75 C127,71.6862915 124.313708,69 121,69 C117.686292,69 115,71.6862915 115,75 C115,78.3137085 117.686292,81 121,81 Z" id="Combined-Shape-Copy-3" fill="#2DC1C1"></path>
                    <path d="M19,26 C13.4771525,26 9,21.5228475 9,16 C9,10.4771525 13.4771525,6 19,6 C24.5228475,6 29,10.4771525 29,16 C29,21.5228475 24.5228475,26 19,26 Z M19,22 C22.3137085,22 25,19.3137085 25,16 C25,12.6862915 22.3137085,10 19,10 C15.6862915,10 13,12.6862915 13,16 C13,19.3137085 15.6862915,22 19,22 Z" id="Combined-Shape-Copy-2" fill="#2DC1C1"></path>
                </g>
                <path d="M598.999998,602.723757 L598.999998,624.184864 C595.066992,622.27194 590.657438,621.2 585.999999,621.2 C569.431457,621.2 555.999999,634.765772 555.999999,651.5 C555.999999,668.234228 569.431457,681.8 585.999999,681.8 C590.657438,681.8 595.066992,680.72806 599,678.815126 L598.999998,700.276243 C594.854695,701.400473 590.496667,702 585.999999,702 C558.385762,702 536,679.39038 536,651.5 C536,623.60962 558.385762,601 585.999999,601 C590.496667,601 594.854695,601.599527 598.999998,602.723757 Z" id="Combined-Shape" fill="#FADB5F"></path>
                <path d="M87.5435341,1024 C86.5356818,1020.00246 86,1015.81441 86,1011.5 C86,983.60962 108.385763,961 136,961 C163.614237,961 186,983.60962 186,1011.5 C186,1015.81441 185.464318,1020.00246 184.456466,1024 L163.336256,1024 C165.047256,1020.18903 166,1015.95689 166,1011.5 C166,994.765771 152.568542,981.2 136,981.2 C119.431458,981.2 106,994.765771 106,1011.5 C106,1015.95689 106.952744,1020.18903 108.66375,1024 L87.5435341,1024 Z" id="Combined-Shape" fill="#4B53FE"></path>
                <path d="M599,197 L599,217.2 C582.431458,217.2 569,230.765772 569,247.5 C569,264.234228 582.431458,277.8 599,277.8 L599,298 C571.385763,298 549,275.39038 549,247.5 C549,219.60962 571.385763,197 599,197 Z" id="Combined-Shape" fill="#1BBDBD"></path>
                <path d="M-3.55271368e-15,319.308798 L31.230856,350.539654 L63.7681011,318.002409 L81.4451276,335.679436 L48.9078824,368.216681 L85.0117658,404.320564 L67.3347393,421.997591 L31.230856,385.893707 L-2.22044605e-16,417.124563 L0,381.77051 L13.5538295,368.216681 L0,354.662851 L0,319.308798 Z" id="Combined-Shape" fill="#FFA09E"></path>
                <path d="M599,946.309457 L599,981.448899 L589.497897,990.951002 L599,1000.4531 L599,1024 L587.407453,1024 L571.928176,1008.52072 L556.448899,1024 L522.715342,1024 L522.012399,1023.29706 L554.358455,990.951002 L521.981054,958.573601 L539.550775,941.00388 L571.928176,973.381281 L599,946.309457 Z" id="Combined-Shape" fill="#26BFBF"></path>
                <path d="M169.992877,129.008903 L221.043478,129.008903 L221.043478,153.991097 L169.992877,153.991097 L169.992877,200 L145.010684,200 L145.010684,153.991097 L98.9565217,153.991097 L98.9565217,129.008903 L145.010684,129.008903 L145.010684,83 L169.992877,83 L169.992877,129.008903 Z" id="Combined-Shape-Copy-9" fill="#F9CE18" transform="translate(160.000000, 141.500000) rotate(45.000000) translate(-160.000000, -141.500000) "></path>
                <path d="M599,27.318795 L599,62.4867084 L565.929206,29.4159143 L533.151938,62.1931818 L515.567982,44.6092251 L548.345249,11.8319576 L536.513292,0 L595.34512,0 L583.513163,11.8319576 L599,27.318795 Z" id="Combined-Shape" fill="#4B53FE"></path>
            </g>
        </g>
    </g>
</svg>