<?xml version="1.0" encoding="UTF-8"?>
<svg viewBox="0 0 26 26" version="1.1" xmlns="http://www.w3.org/2000/svg" xmlns:xlink="http://www.w3.org/1999/xlink">
    <!-- Generator: Sketch 51.2 (57519) - http://www.bohemiancoding.com/sketch -->
    <title>Combined Shape Copy 2</title>
    <desc>Created with Sketch.</desc>
    <defs></defs>
    <g id="Page-1" stroke="none" stroke-width="1" fill="none" fill-rule="evenodd">
        <g id="Play-Screen" transform="translate(-453.000000, -759.000000)" fill="#FFA3A3">
            <g id="Group" transform="translate(83.000000, 489.000000)">
                <g id="TicTacToe-Copy-4" transform="translate(336.500000, 283.500000) scale(-1, -1) translate(-336.500000, -283.500000) translate(223.000000, 188.000000)">
                    <path d="M66.9885057,108.986395 C59.8151521,108.986395 54,103.169142 54,95.9931973 C54,88.8172526 59.8151521,83 66.9885057,83 C74.1618594,83 79.9770115,88.8172526 79.9770115,95.9931973 C79.9770115,103.169142 74.1618594,108.986395 66.9885057,108.986395 Z M66.9885057,103.789116 C71.2925179,103.789116 74.7816092,100.298764 74.7816092,95.9931973 C74.7816092,91.6876305 71.2925179,88.1972789 66.9885057,88.1972789 C62.6844936,88.1972789 59.1954023,91.6876305 59.1954023,95.9931973 C59.1954023,100.298764 62.6844936,103.789116 66.9885057,103.789116 Z" id="Combined-Shape-Copy-2"></path>
                </g>
            </g>
        </g>
    </g>
</svg>